<svg width="14" height="14" viewBox="0 0 14 14" fill="none" xmlns="http://www.w3.org/2000/svg">
<path fill-rule="evenodd" clip-rule="evenodd" d="M8.46035 0.926578C9.72322 -0.33627 11.7703 -0.29444 13.0324 0.967589C14.2944 2.22962 14.3363 4.27668 13.0734 5.53953L10.7624 7.85047C10.2918 8.32104 9.43975 9.02046 8.38677 9.2376C7.84273 9.3498 7.24183 9.33329 6.63191 9.08703C6.02564 8.84224 5.46184 8.39132 4.95275 7.71711L6.15422 6.80993C6.53568 7.31511 6.8934 7.56905 7.19557 7.69106C7.49409 7.81159 7.78855 7.82382 8.0827 7.76316C8.70612 7.6346 9.30183 7.18196 9.69786 6.78594L12.0089 4.475C12.6605 3.82341 12.6656 2.72983 11.9678 2.03212C11.2701 1.3344 10.1765 1.33951 9.5249 1.99111L7.21391 4.30204L6.14936 3.23751L8.46035 0.926578Z" fill="white"/>
<path fill-rule="evenodd" clip-rule="evenodd" d="M5.53965 13.0734C4.27678 14.3363 2.22967 14.2944 0.96761 13.0324C-0.294446 11.7704 -0.336277 9.72332 0.926599 8.46047L3.23759 6.14953C3.70817 5.67896 4.56025 4.97954 5.61323 4.7624C6.15728 4.65021 6.75817 4.66671 7.36809 4.91297C7.97436 5.15776 8.53816 5.60868 9.04725 6.28289L7.84578 7.19007C7.46433 6.68489 7.1066 6.43095 6.80443 6.30894C6.50591 6.18841 6.21145 6.17618 5.9173 6.23684C5.29388 6.3654 4.69817 6.81804 4.30214 7.21406L1.99115 9.525C1.33954 10.1766 1.33443 11.2702 2.03216 11.9679C2.72989 12.6656 3.82349 12.6605 4.4751 12.0089L6.78609 9.69796L7.85064 10.7625L5.53965 13.0734Z" fill="white"/>
</svg>
